<svg width="243" height="52" viewBox="0 0 243 52" fill="none" xmlns="http://www.w3.org/2000/svg">
<path d="M75.7643 28.289V13.0647H82.8353V28.0226C82.8353 30.5597 83.4307 32.2477 84.6217 33.0846C85.8122 33.9221 87.5986 34.3408 89.981 34.3408C92.363 34.3408 94.1432 33.9221 95.3217 33.0846C96.5002 32.2477 97.0899 30.5597 97.0899 28.0226V13.0647H103.483V28.289C103.483 32.3743 102.349 35.3243 100.079 37.1384C97.81 38.9521 94.4438 39.8594 89.981 39.8594C85.3677 39.8594 81.8442 38.9521 79.4124 37.1384C76.9802 35.3243 75.7643 32.3743 75.7643 28.289Z" fill="white"/>
<path d="M109.951 26.0389C109.951 23.4656 110.302 21.2904 111.008 19.5148C111.713 17.7387 112.725 16.3046 114.046 15.2102C115.365 14.1166 116.987 13.3322 118.909 12.8553C120.832 12.3794 122.998 12.1407 125.407 12.1407C129.841 12.1407 133.36 12.8686 135.962 14.3224C138.563 15.7766 140.044 18.3051 140.402 21.9085H133.097C132.815 20.2097 132.021 19.0901 130.713 18.5492C129.406 18.0089 127.637 17.7387 125.407 17.7387C124.228 17.7387 123.139 17.8352 122.139 18.0286C121.14 18.2215 120.28 18.563 119.563 19.0517C118.845 19.5404 118.287 20.223 117.89 21.0975C117.492 21.9725 117.294 23.0921 117.294 24.4563V27.5444C117.294 30.2215 118.037 32.0099 119.525 32.9105C121.011 33.8116 122.972 34.2619 125.407 34.2619C127.56 34.2619 129.291 33.9981 130.598 33.4701C131.905 32.943 132.751 31.8943 133.135 30.3239H140.441C140.03 33.7732 138.524 36.2245 135.923 37.6783C133.321 39.1325 129.816 39.8594 125.407 39.8594C122.998 39.8594 120.832 39.6281 118.909 39.1645C116.987 38.7009 115.365 37.9425 114.046 36.8869C112.725 35.8318 111.713 34.41 111.008 32.6207C110.302 30.8328 109.951 28.6389 109.951 26.0389Z" fill="white"/>
<path d="M170.263 27.3514V24.533C170.263 22.0114 169.505 20.2481 167.991 19.2441C166.476 18.2412 164.228 17.7387 161.249 17.7387C158.269 17.7387 156.015 18.2412 154.488 19.2441C152.961 20.2481 152.197 22.0114 152.197 24.533V27.3514C152.197 30.0286 152.961 31.849 154.488 32.8141C156.015 33.7791 158.269 34.2619 161.249 34.2619C164.228 34.2619 166.476 33.7791 167.991 32.8141C169.505 31.849 170.263 30.0286 170.263 27.3514ZM145.061 25.8071C145.061 23.2343 145.418 21.0719 146.131 19.3219C146.845 17.5719 147.884 16.1629 149.249 15.0945C150.613 14.0271 152.304 13.2672 154.319 12.8169C156.335 12.3666 158.644 12.1407 161.249 12.1407C163.828 12.1407 166.125 12.3666 168.141 12.8169C170.156 13.2672 171.846 14.0271 173.211 15.0945C174.576 16.1629 175.615 17.5719 176.329 19.3219C177.043 21.0719 177.399 23.2343 177.399 25.8071C177.399 28.4582 177.043 30.6846 176.329 32.4858C175.615 34.2875 174.576 35.7353 173.211 36.8293C171.846 37.9228 170.156 38.7009 168.141 39.1645C166.125 39.6281 163.828 39.8594 161.249 39.8594C158.644 39.8594 156.335 39.6281 154.319 39.1645C152.304 38.7009 150.613 37.9228 149.249 36.8293C147.884 35.7353 146.845 34.2875 146.131 32.4858C145.418 30.6846 145.061 28.4582 145.061 25.8071Z" fill="white"/>
<path d="M204.664 21.8383V21.0884C204.664 20.2391 204.409 19.5575 203.899 19.0451C203.388 18.5327 202.51 18.2765 201.265 18.2765H191.814V24.7252H201.265C202.485 24.7252 203.357 24.4566 203.88 23.9194C204.403 23.3821 204.664 22.6886 204.664 21.8383ZM184.791 13.0648H202.311C205.324 13.0648 207.659 13.7837 209.315 15.2209C210.971 16.6582 211.799 18.7139 211.799 21.3881C211.799 23.3884 211.363 25.044 210.492 26.356C209.62 27.6685 208.387 28.6249 206.793 29.2243L212.51 38.9355H204.739L199.472 29.9747H191.814V38.9355H184.791V13.0648Z" fill="white"/>
<path d="M218.977 13.0648H242.848V18.4644H226.112V23.113H239.015V28.3248H226.112V33.5365H243V38.9355H218.977V13.0648Z" fill="white"/>
<path d="M55.2281 14.4893L40.855 0.129406V38.9772C40.855 42.782 39.9592 45.3129 38.1692 46.5686C36.3791 47.8242 33.6746 48.452 30.0567 48.452C26.4383 48.452 23.7243 47.8242 21.9161 46.5686C20.1064 45.3129 19.2025 42.782 19.2025 38.9772V0.129406L4.82894 14.4893C-1.60965 20.922 -1.60965 31.3515 4.82894 37.7841L11.0796 44.029C21.545 54.4848 38.5121 54.4848 48.9774 44.029L55.2281 37.7841C61.6667 31.3515 61.6667 20.922 55.2281 14.4893Z" fill="white"/>
</svg>
