<?xml version="1.0" encoding="UTF-8"?>
<svg id="Layer_1" xmlns="http://www.w3.org/2000/svg" version="1.1" viewBox="0 0 1190.55 245.52">
  <!-- Generator: Adobe Illustrator 29.2.1, SVG Export Plug-In . SVG Version: 2.1.0 Build 116)  -->
  <defs>
    <style>
      .st0 {
        fill: #fff;
      }
    </style>
  </defs>
  <g>
    <g>
      <path class="st0" d="M355.88,130.61V59.47h33.44v69.89c0,11.86,2.82,19.74,8.45,23.65,5.63,3.91,14.08,5.87,25.34,5.87s19.68-1.96,25.25-5.87c5.57-3.91,8.36-11.8,8.36-23.65V59.47h30.23v71.14c0,19.09-5.36,32.87-16.09,41.35-10.73,8.48-26.65,12.71-47.75,12.71s-38.48-4.24-49.98-12.71c-11.5-8.48-17.25-22.26-17.25-41.35Z"/>
      <path class="st0" d="M517.45,121.01c0-11.86,1.63-21.88,4.89-30.06,3.26-8.18,7.94-14.79,14.05-19.83,6.11-5.04,13.61-8.65,22.5-10.85,8.89-2.19,18.91-3.29,30.06-3.29,20.51,0,36.78,3.35,48.82,10.05,12.03,6.7,18.88,18.35,20.54,34.95h-33.79c-1.31-7.83-4.98-12.98-11.03-15.47-6.05-2.49-14.23-3.73-24.54-3.73-5.46,0-10.49.44-15.12,1.33-4.62.89-8.6,2.46-11.92,4.71-3.32,2.25-5.9,5.4-7.74,9.42-1.84,4.03-2.76,9.19-2.76,15.47v14.23c0,12.33,3.44,20.57,10.31,24.72,6.87,4.15,15.94,6.23,27.21,6.23,9.96,0,17.96-1.22,24.01-3.65,6.05-2.43,9.96-7.26,11.74-14.5h33.79c-1.9,15.89-8.87,27.18-20.9,33.88-12.03,6.7-28.25,10.05-48.64,10.05-11.15,0-21.17-1.07-30.06-3.2-8.89-2.13-16.39-5.63-22.5-10.49-6.11-4.86-10.79-11.41-14.05-19.65-3.26-8.24-4.89-18.35-4.89-30.32Z"/>
      <path class="st0" d="M682.76,119.94c0-11.85,1.69-21.81,5.07-29.88,3.38-8.06,8.3-14.55,14.76-19.47,6.46-4.92,14.46-8.42,24.01-10.49,9.54-2.07,20.48-3.11,32.81-3.11s23.09,1.04,32.64,3.11c9.54,2.07,17.54,5.57,24.01,10.49,6.46,4.92,11.38,11.41,14.76,19.47,3.38,8.06,5.07,18.02,5.07,29.88s-1.69,22.47-5.07,30.77c-3.38,8.3-8.3,14.97-14.76,20.01-6.46,5.04-14.47,8.62-24.01,10.76-9.55,2.13-20.42,3.2-32.64,3.2s-23.27-1.07-32.81-3.2c-9.55-2.13-17.55-5.72-24.01-10.76-6.46-5.04-11.38-11.71-14.76-20.01-3.38-8.3-5.07-18.56-5.07-30.77ZM802.1,127.05v-12.98c0-11.62-3.59-19.74-10.76-24.37-7.18-4.62-17.82-6.94-31.92-6.94s-24.78,2.31-32.01,6.94c-7.23,4.62-10.85,12.75-10.85,24.37v12.98c0,12.33,3.62,20.72,10.85,25.17,7.23,4.45,17.9,6.67,32.01,6.67s24.75-2.22,31.92-6.67c7.17-4.45,10.76-12.83,10.76-25.17Z"/>
      <path class="st0" d="M867.81,59.47h83.41c14.35,0,25.46,3.41,33.35,10.23,7.88,6.82,11.83,16.57,11.83,29.26,0,9.49-2.08,17.34-6.22,23.57-4.15,6.23-10.02,10.76-17.61,13.61l27.21,46.06h-36.99l-25.08-42.51h-36.46v42.51h-33.44V59.47ZM962.43,101.09v-3.56c0-4.03-1.22-7.26-3.64-9.69-2.43-2.43-6.61-3.64-12.54-3.64h-45v30.59h45c5.81,0,9.96-1.27,12.45-3.82,2.49-2.55,3.73-5.84,3.73-9.87Z"/>
      <path class="st0" d="M1029.03,59.47h111.87v25.61h-78.43v22.05h60.47v24.72h-60.47v24.72h79.14v25.61h-112.58V59.47Z"/>
    </g>
    <path class="st0" d="M261.82,66.23L193.68-1.91v184.34c0,18.06-4.25,30.06-12.73,36.02-8.49,5.96-21.31,8.94-38.46,8.94s-30.02-2.98-38.59-8.94c-8.58-5.96-12.86-17.97-12.86-36.02V-1.91L22.89,66.23c-30.52,30.52-30.52,80.01,0,110.54l29.63,29.63c49.61,49.61,130.05,49.61,179.66,0l29.63-29.63c30.52-30.52,30.52-80.01,0-110.54Z"/>
  </g>
  <path class="st0" d="M1190.55,46.6c0,7.17-5.69,12.86-12.98,12.86s-12.86-5.57-12.86-12.75,5.69-12.86,12.98-12.86,12.86,5.57,12.86,12.75ZM1187.41,46.66c0-5.63-4.33-9.84-9.78-9.84s-9.78,4.21-9.78,9.84,4.27,9.9,9.78,9.9,9.78-4.27,9.78-9.9ZM1172.82,40.44h5.69c2.67,0,4.57,1.66,4.57,4.15,0,1.84-1.01,3.2-2.55,3.79l3.08,4.51h-3.56l-2.67-4.09h-1.54v4.09h-3.02v-12.45ZM1175.85,43.05v3.38h2.25c1.3,0,1.96-.71,1.96-1.66,0-1.01-.65-1.72-1.96-1.72h-2.25Z"/>
</svg>